<svg id="visual" viewBox="0 0 900 600" width="900" height="600" xmlns="http://www.w3.org/2000/svg" xmlns:xlink="http://www.w3.org/1999/xlink" version="1.1">
    <path d="M0 79L21.5 85C43 91 86 103 128.8 106C171.7 109 214.3 103 257.2 98C300 93 343 89 385.8 93C428.7 97 471.3 109 514.2 118C557 127 600 133 642.8 130C685.7 127 728.3 115 771.2 115C814 115 857 127 878.5 133L900 139L900 0L878.5 0C857 0 814 0 771.2 0C728.3 0 685.7 0 642.8 0C600 0 557 0 514.2 0C471.3 0 428.7 0 385.8 0C343 0 300 0 257.2 0C214.3 0 171.7 0 128.8 0C86 0 43 0 21.5 0L0 0Z" fill="#005ca0"></path>
    <path d="M0 145L21.5 151C43 157 86 169 128.8 170C171.7 171 214.3 161 257.2 152C300 143 343 135 385.8 137C428.7 139 471.3 151 514.2 167C557 183 600 203 642.8 198C685.7 193 728.3 163 771.2 157C814 151 857 169 878.5 178L900 187L900 137L878.5 131C857 125 814 113 771.2 113C728.3 113 685.7 125 642.8 128C600 131 557 125 514.2 116C471.3 107 428.7 95 385.8 91C343 87 300 91 257.2 96C214.3 101 171.7 107 128.8 104C86 101 43 89 21.5 83L0 77Z" fill="#006ba8"></path>
    <path d="M0 187L21.5 191C43 195 86 203 128.8 205C171.7 207 214.3 203 257.2 191C300 179 343 159 385.8 156C428.7 153 471.3 167 514.2 187C557 207 600 233 642.8 229C685.7 225 728.3 191 771.2 185C814 179 857 201 878.5 212L900 223L900 185L878.5 176C857 167 814 149 771.2 155C728.3 161 685.7 191 642.8 196C600 201 557 181 514.2 165C471.3 149 428.7 137 385.8 135C343 133 300 141 257.2 150C214.3 159 171.7 169 128.8 168C86 167 43 155 21.5 149L0 143Z" fill="#0079ae"></path>
    <path d="M0 223L21.5 224C43 225 86 227 128.8 225C171.7 223 214.3 217 257.2 208C300 199 343 187 385.8 185C428.7 183 471.3 191 514.2 211C557 231 600 263 642.8 258C685.7 253 728.3 211 771.2 201C814 191 857 213 878.5 224L900 235L900 221L878.5 210C857 199 814 177 771.2 183C728.3 189 685.7 223 642.8 227C600 231 557 205 514.2 185C471.3 165 428.7 151 385.8 154C343 157 300 177 257.2 189C214.3 201 171.7 205 128.8 203C86 201 43 193 21.5 189L0 185Z" fill="#0086b0"></path>
    <path d="M0 247L21.5 250C43 253 86 259 128.8 255C171.7 251 214.3 237 257.2 228C300 219 343 215 385.8 213C428.7 211 471.3 211 514.2 230C557 249 600 287 642.8 283C685.7 279 728.3 233 771.2 222C814 211 857 235 878.5 247L900 259L900 233L878.5 222C857 211 814 189 771.2 199C728.3 209 685.7 251 642.8 256C600 261 557 229 514.2 209C471.3 189 428.7 181 385.8 183C343 185 300 197 257.2 206C214.3 215 171.7 221 128.8 223C86 225 43 223 21.5 222L0 221Z" fill="#0093af"></path>
    <path d="M0 283L21.5 288C43 293 86 303 128.8 298C171.7 293 214.3 273 257.2 260C300 247 343 241 385.8 245C428.7 249 471.3 263 514.2 282C557 301 600 325 642.8 316C685.7 307 728.3 265 771.2 253C814 241 857 259 878.5 268L900 277L900 257L878.5 245C857 233 814 209 771.2 220C728.3 231 685.7 277 642.8 281C600 285 557 247 514.2 228C471.3 209 428.7 209 385.8 211C343 213 300 217 257.2 226C214.3 235 171.7 249 128.8 253C86 257 43 251 21.5 248L0 245Z" fill="#009fad"></path>
    <path d="M0 295L21.5 303C43 311 86 327 128.8 322C171.7 317 214.3 291 257.2 277C300 263 343 261 385.8 267C428.7 273 471.3 287 514.2 304C557 321 600 341 642.8 330C685.7 319 728.3 277 771.2 265C814 253 857 271 878.5 280L900 289L900 275L878.5 266C857 257 814 239 771.2 251C728.3 263 685.7 305 642.8 314C600 323 557 299 514.2 280C471.3 261 428.7 247 385.8 243C343 239 300 245 257.2 258C214.3 271 171.7 291 128.8 296C86 301 43 291 21.5 286L0 281Z" fill="#00abaa"></path>
    <path d="M0 331L21.5 342C43 353 86 375 128.8 374C171.7 373 214.3 349 257.2 338C300 327 343 329 385.8 333C428.7 337 471.3 343 514.2 358C557 373 600 397 642.8 388C685.7 379 728.3 337 771.2 319C814 301 857 307 878.5 310L900 313L900 287L878.5 278C857 269 814 251 771.2 263C728.3 275 685.7 317 642.8 328C600 339 557 319 514.2 302C471.3 285 428.7 271 385.8 265C343 259 300 261 257.2 275C214.3 289 171.7 315 128.8 320C86 325 43 309 21.5 301L0 293Z" fill="#00b6a0"></path>
    <path d="M0 355L21.5 365C43 375 86 395 128.8 399C171.7 403 214.3 391 257.2 380C300 369 343 359 385.8 357C428.7 355 471.3 361 514.2 376C557 391 600 415 642.8 410C685.7 405 728.3 371 771.2 359C814 347 857 357 878.5 362L900 367L900 311L878.5 308C857 305 814 299 771.2 317C728.3 335 685.7 377 642.8 386C600 395 557 371 514.2 356C471.3 341 428.7 335 385.8 331C343 327 300 325 257.2 336C214.3 347 171.7 371 128.8 372C86 373 43 351 21.5 340L0 329Z" fill="#00c08d"></path>
    <path d="M0 523L21.5 521C43 519 86 515 128.8 514C171.7 513 214.3 515 257.2 514C300 513 343 509 385.8 505C428.7 501 471.3 497 514.2 498C557 499 600 505 642.8 507C685.7 509 728.3 507 771.2 497C814 487 857 469 878.5 460L900 451L900 365L878.5 360C857 355 814 345 771.2 357C728.3 369 685.7 403 642.8 408C600 413 557 389 514.2 374C471.3 359 428.7 353 385.8 355C343 357 300 367 257.2 378C214.3 389 171.7 401 128.8 397C86 393 43 373 21.5 363L0 353Z" fill="#36c874"></path>
    <path d="M0 541L21.5 540C43 539 86 537 128.8 539C171.7 541 214.3 547 257.2 546C300 545 343 537 385.8 531C428.7 525 471.3 521 514.2 522C557 523 600 529 642.8 533C685.7 537 728.3 539 771.2 530C814 521 857 501 878.5 491L900 481L900 449L878.5 458C857 467 814 485 771.2 495C728.3 505 685.7 507 642.8 505C600 503 557 497 514.2 496C471.3 495 428.7 499 385.8 503C343 507 300 511 257.2 512C214.3 513 171.7 511 128.8 512C86 513 43 517 21.5 519L0 521Z" fill="#68ce54"></path>
    <path d="M0 601L21.5 601C43 601 86 601 128.8 601C171.7 601 214.3 601 257.2 601C300 601 343 601 385.8 601C428.7 601 471.3 601 514.2 601C557 601 600 601 642.8 601C685.7 601 728.3 601 771.2 601C814 601 857 601 878.5 601L900 601L900 479L878.5 489C857 499 814 519 771.2 528C728.3 537 685.7 535 642.8 531C600 527 557 521 514.2 520C471.3 519 428.7 523 385.8 529C343 535 300 543 257.2 544C214.3 545 171.7 539 128.8 537C86 535 43 537 21.5 538L0 539Z" fill="#95d22a"></path>
</svg>